<mxfile host="app.diagrams.net" agent="Mozilla/5.0 (Macintosh; Intel Mac OS X 10_15_7) AppleWebKit/537.36 (KHTML, like Gecko) Chrome/134.0.0.0 Safari/537.36" version="26.2.5">
  <diagram name="Page-1" id="xo_6sljoUQ37vMBKIHlz">
    <mxGraphModel dx="898" dy="557" grid="1" gridSize="10" guides="1" tooltips="1" connect="1" arrows="1" fold="1" page="1" pageScale="1" pageWidth="850" pageHeight="1100" background="light-dark(#ffffff, #f3f1f1)" math="0" shadow="0">
      <root>
        <mxCell id="0" />
        <mxCell id="1" parent="0" />
        <mxCell id="Waio1BJR8QQ7oTb0Zxe1-9" value="" style="rounded=1;whiteSpace=wrap;html=1;fillColor=light-dark(#FFFFFF,#FFFFFF);strokeColor=light-dark(#000000,#666666);strokeWidth=2;" vertex="1" parent="1">
          <mxGeometry x="340" y="277" width="440" height="280" as="geometry" />
        </mxCell>
        <mxCell id="Waio1BJR8QQ7oTb0Zxe1-22" value="" style="rounded=0;whiteSpace=wrap;html=1;strokeWidth=9;strokeColor=light-dark(#FFFFFF,#FFFFFF);" vertex="1" parent="1">
          <mxGeometry x="360" y="455" width="400" height="10" as="geometry" />
        </mxCell>
        <mxCell id="Waio1BJR8QQ7oTb0Zxe1-23" value="" style="rounded=0;whiteSpace=wrap;html=1;strokeWidth=9;strokeColor=light-dark(#FFFFFF,#FFFFFF);" vertex="1" parent="1">
          <mxGeometry x="360" y="405" width="400" height="10" as="geometry" />
        </mxCell>
        <mxCell id="Waio1BJR8QQ7oTb0Zxe1-24" value="" style="rounded=0;whiteSpace=wrap;html=1;strokeWidth=9;strokeColor=light-dark(#FFFFFF,#FFFFFF);" vertex="1" parent="1">
          <mxGeometry x="360" y="320" width="400" height="10" as="geometry" />
        </mxCell>
        <mxCell id="Waio1BJR8QQ7oTb0Zxe1-25" value="&lt;font style=&quot;color: light-dark(rgb(0, 0, 0), rgb(102, 102, 102));&quot;&gt;color&lt;/font&gt;" style="text;strokeColor=none;fillColor=none;align=left;verticalAlign=middle;spacingLeft=4;spacingRight=4;overflow=hidden;points=[[0,0.5],[1,0.5]];portConstraint=eastwest;rotatable=0;whiteSpace=wrap;html=1;" vertex="1" parent="1">
          <mxGeometry x="360" y="290" width="40" height="30" as="geometry" />
        </mxCell>
        <mxCell id="Waio1BJR8QQ7oTb0Zxe1-26" value="&lt;font style=&quot;color: light-dark(rgb(0, 0, 0), rgb(102, 102, 102));&quot;&gt;cluster Id&lt;/font&gt;" style="text;strokeColor=none;fillColor=none;align=left;verticalAlign=middle;spacingLeft=4;spacingRight=4;overflow=hidden;points=[[0,0.5],[1,0.5]];portConstraint=eastwest;rotatable=0;whiteSpace=wrap;html=1;" vertex="1" parent="1">
          <mxGeometry x="400" y="290" width="80" height="30" as="geometry" />
        </mxCell>
        <mxCell id="Waio1BJR8QQ7oTb0Zxe1-27" value="&lt;font style=&quot;color: light-dark(rgb(0, 0, 0), rgb(102, 102, 102));&quot;&gt;gene count&lt;/font&gt;" style="text;strokeColor=none;fillColor=none;align=left;verticalAlign=middle;spacingLeft=4;spacingRight=4;overflow=hidden;points=[[0,0.5],[1,0.5]];portConstraint=eastwest;rotatable=0;whiteSpace=wrap;html=1;" vertex="1" parent="1">
          <mxGeometry x="460" y="290" width="80" height="30" as="geometry" />
        </mxCell>
        <mxCell id="Waio1BJR8QQ7oTb0Zxe1-28" value="&lt;font style=&quot;color: light-dark(rgb(0, 0, 0), rgb(102, 102, 102));&quot;&gt;description&lt;/font&gt;" style="text;strokeColor=none;fillColor=none;align=left;verticalAlign=middle;spacingLeft=4;spacingRight=4;overflow=hidden;points=[[0,0.5],[1,0.5]];portConstraint=eastwest;rotatable=0;whiteSpace=wrap;html=1;" vertex="1" parent="1">
          <mxGeometry x="535" y="290" width="80" height="30" as="geometry" />
        </mxCell>
        <mxCell id="Waio1BJR8QQ7oTb0Zxe1-30" value="" style="ellipse;whiteSpace=wrap;html=1;aspect=fixed;fillColor=light-dark(#FFFFFF,#CCFFCC);" vertex="1" parent="1">
          <mxGeometry x="370" y="425" width="20" height="20" as="geometry" />
        </mxCell>
        <mxCell id="Waio1BJR8QQ7oTb0Zxe1-31" value="" style="ellipse;whiteSpace=wrap;html=1;aspect=fixed;fillColor=light-dark(#FFFFFF,#FF9999);" vertex="1" parent="1">
          <mxGeometry x="370" y="357.5" width="20" height="20" as="geometry" />
        </mxCell>
        <mxCell id="Waio1BJR8QQ7oTb0Zxe1-32" value="" style="ellipse;whiteSpace=wrap;html=1;aspect=fixed;fillColor=light-dark(#FFFFFF,#81D7D7);" vertex="1" parent="1">
          <mxGeometry x="370" y="490" width="20" height="20" as="geometry" />
        </mxCell>
        <mxCell id="Waio1BJR8QQ7oTb0Zxe1-37" value="&lt;font style=&quot;color: light-dark(rgb(0, 0, 0), rgb(102, 102, 102));&quot;&gt;cluster 1&lt;/font&gt;" style="text;strokeColor=none;fillColor=none;align=left;verticalAlign=middle;spacingLeft=4;spacingRight=4;overflow=hidden;points=[[0,0.5],[1,0.5]];portConstraint=eastwest;rotatable=0;whiteSpace=wrap;html=1;" vertex="1" parent="1">
          <mxGeometry x="400" y="352.5" width="60" height="30" as="geometry" />
        </mxCell>
        <mxCell id="Waio1BJR8QQ7oTb0Zxe1-38" value="&lt;font style=&quot;color: light-dark(rgb(0, 0, 0), rgb(102, 102, 102));&quot;&gt;cluster 2&lt;/font&gt;" style="text;strokeColor=none;fillColor=none;align=left;verticalAlign=middle;spacingLeft=4;spacingRight=4;overflow=hidden;points=[[0,0.5],[1,0.5]];portConstraint=eastwest;rotatable=0;whiteSpace=wrap;html=1;" vertex="1" parent="1">
          <mxGeometry x="400" y="420" width="60" height="30" as="geometry" />
        </mxCell>
        <mxCell id="Waio1BJR8QQ7oTb0Zxe1-39" value="&lt;font style=&quot;color: light-dark(rgb(0, 0, 0), rgb(102, 102, 102));&quot;&gt;cluster 3&lt;/font&gt;" style="text;strokeColor=none;fillColor=none;align=left;verticalAlign=middle;spacingLeft=4;spacingRight=4;overflow=hidden;points=[[0,0.5],[1,0.5]];portConstraint=eastwest;rotatable=0;whiteSpace=wrap;html=1;" vertex="1" parent="1">
          <mxGeometry x="400" y="485" width="60" height="30" as="geometry" />
        </mxCell>
        <mxCell id="Waio1BJR8QQ7oTb0Zxe1-40" value="&lt;font style=&quot;color: light-dark(rgb(0, 0, 0), rgb(102, 102, 102));&quot;&gt;8&lt;/font&gt;" style="text;strokeColor=none;fillColor=none;align=left;verticalAlign=middle;spacingLeft=4;spacingRight=4;overflow=hidden;points=[[0,0.5],[1,0.5]];portConstraint=eastwest;rotatable=0;whiteSpace=wrap;html=1;" vertex="1" parent="1">
          <mxGeometry x="480" y="352.5" width="20" height="30" as="geometry" />
        </mxCell>
        <mxCell id="Waio1BJR8QQ7oTb0Zxe1-41" value="&lt;font style=&quot;color: light-dark(rgb(0, 0, 0), rgb(102, 102, 102));&quot;&gt;4&lt;/font&gt;" style="text;strokeColor=none;fillColor=none;align=left;verticalAlign=middle;spacingLeft=4;spacingRight=4;overflow=hidden;points=[[0,0.5],[1,0.5]];portConstraint=eastwest;rotatable=0;whiteSpace=wrap;html=1;" vertex="1" parent="1">
          <mxGeometry x="480" y="420" width="20" height="30" as="geometry" />
        </mxCell>
        <mxCell id="Waio1BJR8QQ7oTb0Zxe1-42" value="&lt;font style=&quot;color: light-dark(rgb(0, 0, 0), rgb(102, 102, 102));&quot;&gt;3&lt;/font&gt;" style="text;strokeColor=none;fillColor=none;align=left;verticalAlign=middle;spacingLeft=4;spacingRight=4;overflow=hidden;points=[[0,0.5],[1,0.5]];portConstraint=eastwest;rotatable=0;whiteSpace=wrap;html=1;" vertex="1" parent="1">
          <mxGeometry x="480" y="485" width="20" height="30" as="geometry" />
        </mxCell>
        <mxCell id="Waio1BJR8QQ7oTb0Zxe1-43" value="&lt;div&gt;&lt;font style=&quot;color: light-dark(rgb(0, 0, 0), rgb(102, 102, 102));&quot;&gt;&lt;font style=&quot;&quot;&gt;1.&amp;nbsp;&lt;/font&gt;&lt;span style=&quot;background-color: transparent;&quot;&gt;Negative regulation of epithelial cell&amp;nbsp; &amp;nbsp; &amp;nbsp; &amp;nbsp; &amp;nbsp; &amp;nbsp; &amp;nbsp;apoptotic process&lt;br&gt;&lt;br&gt;&lt;/span&gt;&lt;/font&gt;&lt;/div&gt;&lt;div&gt;&lt;font style=&quot;color: light-dark(rgb(0, 0, 0), rgb(102, 102, 102));&quot;&gt;&lt;font style=&quot;&quot;&gt;&amp;nbsp;2.&amp;nbsp;&lt;/font&gt;&lt;span style=&quot;background-color: transparent;&quot;&gt;CD163 mediating an anti-inflammatory&amp;nbsp; &amp;nbsp; &amp;nbsp; &amp;nbsp;response&lt;/span&gt;&lt;/font&gt;&lt;/div&gt;" style="text;strokeColor=none;fillColor=none;align=left;verticalAlign=middle;spacingLeft=4;spacingRight=4;overflow=hidden;points=[[0,0.5],[1,0.5]];portConstraint=eastwest;rotatable=0;whiteSpace=wrap;html=1;" vertex="1" parent="1">
          <mxGeometry x="535" y="330" width="250" height="75" as="geometry" />
        </mxCell>
        <mxCell id="Waio1BJR8QQ7oTb0Zxe1-46" value="&lt;font style=&quot;color: light-dark(rgb(0, 0, 0), rgb(102, 102, 102));&quot;&gt;Positive regulation of myeloid leukocyte mediated immunity&lt;/font&gt;" style="text;strokeColor=none;fillColor=none;align=left;verticalAlign=middle;spacingLeft=4;spacingRight=4;overflow=hidden;points=[[0,0.5],[1,0.5]];portConstraint=eastwest;rotatable=0;whiteSpace=wrap;html=1;" vertex="1" parent="1">
          <mxGeometry x="535" y="420" width="270" height="30" as="geometry" />
        </mxCell>
        <mxCell id="Waio1BJR8QQ7oTb0Zxe1-49" value="&lt;div&gt;&lt;font style=&quot;color: light-dark(rgb(0, 0, 0), rgb(102, 102, 102));&quot;&gt;1.&amp;nbsp;&lt;/font&gt;&lt;span style=&quot;color: light-dark(rgb(0, 0, 0), rgb(102, 102, 102)); background-color: transparent;&quot;&gt;RAGE receptor binding&lt;br&gt;&lt;br&gt;&lt;/span&gt;&lt;/div&gt;&lt;div&gt;&lt;font style=&quot;color: light-dark(rgb(0, 0, 0), rgb(102, 102, 102));&quot;&gt;2.&amp;nbsp;&lt;/font&gt;&lt;span style=&quot;color: light-dark(rgb(0, 0, 0), rgb(102, 102, 102)); background-color: transparent;&quot;&gt;Metal sequestration by antimicrobial proteins, and Regulation of endothelin production&lt;/span&gt;&lt;/div&gt;" style="text;strokeColor=none;fillColor=none;align=left;verticalAlign=middle;spacingLeft=4;spacingRight=4;overflow=hidden;points=[[0,0.5],[1,0.5]];portConstraint=eastwest;rotatable=0;whiteSpace=wrap;html=1;" vertex="1" parent="1">
          <mxGeometry x="535" y="465" width="240" height="80" as="geometry" />
        </mxCell>
      </root>
    </mxGraphModel>
  </diagram>
</mxfile>
